<?xml version="1.0" standalone="no"?>
<!DOCTYPE svg PUBLIC "-//W3C//DTD SVG 20010904//EN"
 "http://www.w3.org/TR/2001/REC-SVG-20010904/DTD/svg10.dtd">
<svg version="1.0" xmlns="http://www.w3.org/2000/svg"
 width="225.000000pt" height="225.000000pt" viewBox="0 0 225.000000 225.000000"
 preserveAspectRatio="xMidYMid meet">

<g transform="translate(0.000000,225.000000) scale(0.100000,-0.100000)"
fill="#000000" stroke="none">
<path d="M1407 2203 l-47 -48 91 -91 92 -92 -38 -34 c-21 -18 -126 -110 -234
-203 l-195 -171 -51 15 c-33 10 -98 15 -190 15 -120 1 -151 -2 -215 -22 -100
-32 -214 -92 -275 -146 l-50 -44 270 -273 c149 -150 393 -394 543 -544 l274
-271 44 51 c54 61 114 175 146 275 20 65 23 95 22 220 0 100 -5 159 -16 190
l-14 45 179 205 c98 113 190 218 204 234 l24 29 92 -91 93 -92 47 48 47 47
-398 398 -397 397 -48 -47z"/>
</g>
</svg>
